<svg width="153" height="40" viewBox="0 0 153 40" fill="none" xmlns="http://www.w3.org/2000/svg">
<path d="M44.4842 18.7109L45.0693 16.85L43.1338 16.9095C42.9702 16.9095 41.7816 16.8764 40.6285 16.0456C40.7144 16.0533 40.8005 16.0655 40.8881 16.0655C42.075 16.0655 43.2231 15.3548 43.6835 14.34L44.5163 12.5055C43.4727 12.5187 42.5184 12.3876 42.5184 12.3876C42.51 12.3865 41.758 12.2907 40.8881 11.4081C40.2643 10.7746 39.4921 10.4396 38.6559 10.4396C38.29 10.4396 37.963 10.5046 37.6814 10.5939C37.7252 10.444 37.7674 10.2942 37.791 10.1377C38.0574 8.42111 36.9446 7.11107 36.9446 7.11217L35.4896 5.32173L34.5876 7.42509C34.5843 7.4328 34.3567 7.92531 33.9487 8.16661C33.8256 7.54739 33.5238 6.85215 32.878 6.18776C31.6608 4.93391 30.1788 4.7488 29.4033 4.7488C29.0442 4.7488 28.7879 4.78735 28.7255 4.79727L26.9687 5.13995C27.0699 4.74991 27.2857 4.07119 27.6803 3.45969L28.6496 1.95902L26.2101 2.23557L25.4328 0.594992L23.9289 1.36626L22.538 0L21.1505 1.36626L19.6416 0.594992L18.866 2.23557L16.428 1.95902L17.3992 3.45969C17.7937 4.07119 18.0095 4.7488 18.109 5.13884L16.4331 4.81051L16.3758 4.80058C16.2915 4.78736 16.0369 4.7488 15.6762 4.7488C14.9006 4.7488 13.4186 4.93611 12.2047 6.18776C11.5573 6.85105 11.2555 7.54739 11.1308 8.16661C10.7261 7.92861 10.5002 7.44271 10.5002 7.44271L9.59652 5.32614L8.11789 7.12871C7.93753 7.36229 7.04573 8.593 7.28845 10.141C7.3138 10.2953 7.35423 10.4462 7.39808 10.595C7.11823 10.5068 6.7911 10.4407 6.42519 10.4407C5.58903 10.4407 4.81677 10.7768 4.19139 11.4092C3.3247 12.2896 2.57614 12.3876 2.58297 12.3876C2.58297 12.3876 1.7922 12.5286 0.568203 12.5066L1.39599 14.3411C1.85622 15.3581 3.00606 16.0677 4.19139 16.0677C4.28074 16.0677 4.36668 16.0555 4.45439 16.0467C3.30454 16.8786 2.11591 16.9116 1.97257 16.9127L0 16.85L0.596851 18.7087C0.896983 19.6673 1.90007 21.2561 3.82206 21.4269C3.61305 22.2984 3.14941 23.2735 2.13112 23.6933L0.662627 24.2948L1.46342 25.6809C1.91527 26.4279 2.97576 27.3028 4.48634 27.3028C4.81347 27.3006 5.12869 27.2686 5.43224 27.2047C5.50981 27.5474 5.60754 27.889 5.72223 28.2272C6.17232 29.5571 5.7846 30.4859 5.77953 30.4958L5.05454 32.0053L6.67309 32.4284C6.69326 32.4361 7.18224 32.5683 7.79429 32.5683C8.07239 32.5683 8.33715 32.5397 8.5866 32.4813C8.77545 32.4372 8.95593 32.3788 9.12957 32.3083C9.33859 32.6818 9.59321 33.0223 9.88993 33.3264C10.9267 34.3841 12.3952 34.9207 14.2565 34.9207H14.2633L15.5919 34.903L12.8471 36.0357L14.9309 37.0361C15.688 37.4031 16.5866 37.8372 17.5003 38.1688L17.2407 38.8762L17.9589 39.2012C18.023 39.2287 19.4038 39.8446 21.7001 39.9747C21.7001 39.9747 22.2547 40 22.5599 40C22.8651 40 23.4131 39.9736 23.4131 39.9736C25.6941 39.8391 27.0649 39.2309 27.1289 39.2012L27.8488 38.874L27.5858 38.1655C28.5265 37.8239 29.4572 37.3733 30.1822 37.0207L32.2273 36.0346L29.491 34.8997L30.8246 34.9174C32.6875 34.9174 34.1577 34.3808 35.1929 33.322C35.488 33.019 35.7425 32.6785 35.9533 32.305C36.1269 32.3755 36.3091 32.4339 36.4978 32.478C36.7457 32.5364 37.0104 32.565 37.2886 32.565C37.8905 32.565 38.3844 32.4328 38.398 32.4284L40.0231 32.002L39.3151 30.5212C39.2983 30.4826 38.9104 29.556 39.3606 28.2239C39.4752 27.8834 39.5714 27.5419 39.6488 27.2014C39.954 27.2653 40.2727 27.2984 40.6015 27.2984C42.5251 27.2984 43.4474 25.9531 43.6262 25.6622L44.4185 24.2916L42.95 23.6922C41.93 23.2713 41.468 22.2951 41.2607 21.4247C43.1557 21.2638 44.1741 19.6761 44.4842 18.7109ZM18.2371 5.7801L18.2169 5.78559L18.2338 5.76356L18.2371 5.7801Z" fill="white"/>
<path d="M22.5398 5.69856C20.9852 5.69966 19.8203 6.20539 19.5657 6.80037L22.5398 7.96717L25.5138 6.80037C25.2609 6.20539 24.0959 5.69966 22.5398 5.69856Z" fill="white"/>
<path d="M22.5698 36.5668H22.5665H22.5412H22.5125H22.5109C21.5684 36.5734 20.2719 36.3817 19.6464 36.1999L18.8944 38.2228C19.3901 38.398 21.0694 38.7329 22.5412 38.7329C24.0097 38.7329 25.6906 38.3969 26.1846 38.2228L25.4343 36.1999C24.8071 36.3828 23.5123 36.5734 22.5698 36.5668Z" fill="white"/>
<path d="M28.2602 34.5571C27.7004 34.8722 26.4511 35.3438 25.7245 35.5641L26.3348 37.2345C27.4593 36.9293 28.3866 36.5723 29.1538 36.19L27.8876 35.7713L28.2602 34.5571Z" fill="white"/>
<path d="M16.8209 34.5571L17.1952 35.7713L15.9274 36.19C16.6928 36.5723 17.6251 36.9293 18.7446 37.2345L19.3549 35.5641C18.6316 35.3438 17.3806 34.87 16.8209 34.5571Z" fill="white"/>
<path d="M22.5397 3.76489C23.7115 3.76489 24.8613 4.04254 25.7447 4.53174C25.8257 4.2629 25.9387 3.93566 26.092 3.5941L25.7582 3.63375L25.4076 3.67122L25.2592 3.35392L24.8124 2.41628L23.998 2.83825L23.6812 2.99914L23.4282 2.75123L22.5431 1.87968L21.6597 2.75123L21.4067 2.99914L21.0898 2.83825L20.2704 2.41628L19.8287 3.35392L19.677 3.67122L19.3263 3.63375L18.9924 3.5941C19.1459 3.93787 19.2572 4.2629 19.3397 4.53174C20.2249 4.04254 21.3713 3.76489 22.5397 3.76489Z" fill="white"/>
<path d="M40.4294 14.6078C40.5812 14.6596 40.7363 14.6838 40.8898 14.6838C41.5523 14.6838 42.193 14.2574 42.4139 13.7704C42.4139 13.7704 41.1983 13.6966 39.8916 12.3777C39.4752 11.9513 39.0352 11.8235 38.6575 11.8235C38.0708 11.8235 37.6307 12.132 37.6307 12.132C39.2089 12.9661 39.5308 14.307 40.4294 14.6078Z" fill="white"/>
<path d="M4.18959 14.6838C4.34297 14.6838 4.4981 14.6596 4.64651 14.6078C5.54845 14.307 5.87216 12.9661 7.45028 12.132C7.45028 12.132 7.00845 11.8235 6.42516 11.8235C6.04581 11.8235 5.60574 11.9513 5.18761 12.3777C3.88274 13.6966 2.66711 13.7704 2.66711 13.7704C2.88461 14.2574 3.52697 14.6838 4.18959 14.6838Z" fill="white"/>
<path d="M40.8578 20.0551C40.8847 20.0562 40.9084 20.0562 40.937 20.0562C42.591 20.0562 43.1523 18.2955 43.1523 18.2955H43.1204C42.8168 18.2955 40.357 18.225 38.6188 16.0291C37.474 14.5846 36.5366 13.3142 34.6837 12.8151L34.5017 12.7832L34.4612 12.5992C34.4106 12.3182 34.6045 12.0549 35.0446 11.7695C37.6004 10.1058 35.8656 7.98482 35.8656 7.98482C35.8656 7.98482 35.1356 9.68269 33.5019 9.68269C33.4631 9.68269 33.4209 9.68049 33.3805 9.68049C33.1951 9.67057 33.0164 9.66396 32.8359 9.6254L32.5341 9.567C32.5341 9.567 32.9995 8.30874 31.8767 7.15295C31.0302 6.27922 30.0002 6.13268 29.405 6.13268C29.1048 6.13268 28.9143 6.17122 28.9143 6.17122C29.4791 6.90503 29.8871 8.12142 29.2347 8.87175C28.6716 9.51631 27.2958 9.54827 27.2958 10.5102C27.2958 10.9167 27.6785 11.3927 28.3664 11.8202C30.4352 13.1148 32.4886 14.8325 33.3417 17.1342C34.4089 20.0066 33.2069 21.9105 31.4905 23.0035C31.4905 23.0035 32.0284 23.496 32.809 23.5577C32.9674 23.5732 33.1226 23.5798 33.2676 23.5798C34.9148 23.5798 35.7661 22.8129 35.7661 22.8129C35.7661 22.8129 35.6262 23.8729 34.768 24.8579C33.9774 25.768 32.9388 26.3024 31.3556 26.3255C31.3556 26.3255 31.305 27.056 32.0064 27.6873C32.4549 28.0862 33.4918 28.2173 33.4918 28.2173C33.4918 28.2173 31.5512 28.6073 31.3371 31.4555C31.2207 32.9991 30.8245 33.5346 30.8245 33.5346H30.86C35.3632 33.5346 35.2469 29.697 35.2469 29.697C35.2469 29.697 35.5604 30.8319 36.8165 31.1294C36.9682 31.169 37.1301 31.1844 37.2852 31.1844C37.6898 31.1844 38.0405 31.0908 38.0405 31.0908C38.0405 31.0908 37.3829 29.7113 38.0354 27.7832C38.5766 26.1834 38.4889 24.9967 38.4889 24.9967C38.4889 24.9967 39.0959 25.909 40.5998 25.9167H40.615C41.8676 25.9167 42.4139 24.9736 42.4139 24.9736C39.4112 23.7351 39.708 19.7378 39.708 19.7378C39.708 19.7378 40.0973 20.0264 40.8578 20.0551ZM39.9541 24.2299C38.7334 23.6316 37.9613 22.0439 37.7741 21.4709C37.5718 24.6199 36.0241 26.807 34.215 28.9103C33.2759 30.0011 32.9489 31.0622 32.9489 31.0622C32.9489 31.0622 33.1293 29.8612 33.9419 28.8828C35.6295 26.8665 37.233 24.3587 37.3526 21.4588C37.4353 19.4348 36.9109 17.7931 36.0933 16.4412C36.5501 17.8504 36.4861 19.5758 34.9333 21.1855C34.9333 21.1855 38.0236 17.5044 33.7025 13.7318C31.9727 12.2962 30.081 11.4092 29.1066 10.7812C32.6269 11.9227 34.3448 10.6655 34.3448 10.6655C33.2203 11.634 31.7654 11.6175 30.8633 11.4786C31.1078 11.5976 31.3624 11.721 31.6372 11.8676C34.6045 13.4685 37.2716 16.104 37.7269 19.7543V19.7268C38.4182 23.3098 39.9541 24.2299 39.9541 24.2299Z" fill="white"/>
<path d="M11.5876 28.2173C11.5876 28.2173 12.6246 28.0884 13.073 27.6873C13.7726 27.056 13.7237 26.3255 13.7237 26.3255C12.139 26.3035 11.1021 25.768 10.3062 24.8601C9.45488 23.8751 9.31329 22.814 9.31329 22.814C9.31329 22.814 10.1647 23.5809 11.8102 23.5809C11.9585 23.5809 12.112 23.5743 12.2704 23.5599C13.0511 23.4971 13.5905 23.0046 13.5905 23.0046C11.8742 21.9127 10.6705 20.0066 11.7359 17.1342C12.5907 14.8347 14.6426 13.1148 16.7113 11.8202C17.3991 11.3927 17.7819 10.9189 17.7819 10.5102C17.7819 9.54827 16.4078 9.51631 15.8447 8.87175C15.1922 8.12142 15.602 6.90282 16.165 6.17122C16.165 6.17122 15.9779 6.13268 15.6761 6.13268C15.0827 6.13268 14.0525 6.27922 13.2062 7.15295C12.0799 8.30874 12.547 9.567 12.547 9.567L12.2452 9.6254C12.0647 9.66396 11.8844 9.67057 11.7006 9.68049C11.6585 9.68049 11.6214 9.68269 11.5809 9.68269C9.94386 9.68269 9.21722 7.987 9.21722 7.987C9.21722 7.987 7.48231 10.108 10.0365 11.7717C10.4766 12.056 10.6687 12.3193 10.6182 12.6014L10.5777 12.7854L10.3923 12.8173C8.5428 13.3164 7.60373 14.5857 6.45895 16.0302C4.72405 18.2239 2.26757 18.2955 1.96072 18.2955H1.927C1.927 18.2955 2.48848 20.0562 4.1424 20.0562C4.1694 20.0562 4.19298 20.0562 4.22162 20.0551C4.98198 20.0275 5.37312 19.7378 5.37312 19.7378C5.37312 19.7378 5.66653 23.734 2.66719 24.9736C2.66719 24.9736 3.21347 25.9167 4.46611 25.9167H4.48132C5.98683 25.909 6.59216 24.9967 6.59216 24.9967C6.59216 24.9967 6.50446 26.1834 7.0439 27.7832C7.69639 29.7113 7.04225 31.0908 7.04225 31.0908C7.04225 31.0908 7.39295 31.1844 7.79589 31.1844C7.95267 31.1844 8.11288 31.169 8.26294 31.1294C9.51724 30.8319 9.83257 29.697 9.83257 29.697C9.83257 29.697 9.71788 33.5346 14.2211 33.5346H14.2531C14.2531 33.5346 13.8586 32.9991 13.744 31.4555C13.5281 28.6073 11.5876 28.2173 11.5876 28.2173ZM10.8643 28.9103C9.05536 26.807 7.5093 24.6199 7.30525 21.4709C7.11816 22.0417 6.34932 23.6316 5.12874 24.2299C5.12874 24.2299 6.6629 23.3098 7.35252 19.7268V19.7543C7.80933 16.1062 10.4749 13.4685 13.4439 11.8676C13.7153 11.7199 13.9733 11.5954 14.216 11.4786C13.3141 11.6175 11.859 11.634 10.7345 10.6655C10.7345 10.6655 12.4526 11.9227 15.9712 10.7812C14.9966 11.4092 13.1067 12.2962 11.3769 13.7318C7.05404 17.5044 10.1461 21.1855 10.1461 21.1855C8.59172 19.5736 8.52925 17.8504 8.98617 16.4412C8.16675 17.7942 7.64417 19.4348 7.72845 21.4588C7.84646 24.3587 9.4498 26.8665 11.1341 28.8828C11.9484 29.859 12.1322 31.0622 12.1322 31.0622C12.1322 31.0622 11.8017 30.0011 10.8643 28.9103Z" fill="white"/>
<path d="M19.2101 14.1836C19.2842 14.2629 19.3567 14.3477 19.4259 14.4337C19.4428 14.4535 19.4579 14.4722 19.4747 14.4954C19.5388 14.5813 19.6046 14.6717 19.667 14.7642C19.6804 14.7818 19.694 14.8039 19.7091 14.8259C19.785 14.9394 19.8558 15.0573 19.9266 15.1774C20.5756 16.2913 21.616 16.9568 22.5382 16.959C23.462 16.9568 24.499 16.2913 25.1514 15.1774C25.2239 15.054 25.2964 14.9328 25.3722 14.8204C25.384 14.8039 25.3958 14.7885 25.406 14.7719C25.4701 14.6772 25.5375 14.5824 25.6083 14.4921C25.6235 14.4722 25.637 14.4557 25.6504 14.4392C25.7229 14.3499 25.7971 14.2629 25.873 14.1825C25.8865 14.1693 25.8966 14.1571 25.9084 14.1472C26.2388 13.8101 26.6334 13.5544 27.1492 13.4112L26.9199 13.279H26.9065L25.9927 12.7512L25.0536 12.2168L22.5449 13.5743L22.5382 13.5688L22.5331 13.5743L20.0226 12.2168L19.0853 12.7501L18.1698 13.2779H18.1597L17.927 13.4101C18.4446 13.5522 18.8374 13.8056 19.1696 14.1417C19.1847 14.156 19.1949 14.1703 19.2101 14.1836ZM21.5232 14.0756H22.5853H23.6458V14.7995C23.3963 14.4954 22.9107 14.5582 22.9107 14.5582V15.6016C22.9107 15.6016 22.9293 16.1139 23.1097 16.3365H22.5853H22.0593C22.2431 16.1161 22.26 15.6016 22.26 15.6016V14.5582C22.26 14.5582 21.7761 14.4954 21.5232 14.7995V14.0756Z" fill="white"/>
<path d="M22.3221 12.6708V8.43433L19.6077 7.51872L20.3242 11.6252L22.3221 12.6708ZM21.7388 9.47443V10.1543L21.6072 10.0948C21.6005 10.0893 21.4083 10.0452 21.0711 9.78074C20.5148 9.35213 20.5046 8.95659 20.5046 8.95659L21.7388 9.47443Z" fill="white"/>
<path d="M24.7566 11.6252L25.4698 7.51872L22.7571 8.43433V12.6708L24.7566 11.6252ZM23.3405 9.47443L24.5745 8.95879C24.5745 8.95879 24.5645 9.35324 24.0064 9.78294C23.6709 10.0474 23.477 10.0915 23.4703 10.0959L23.3387 10.1565V9.47443H23.3405Z" fill="white"/>
<path d="M18.4833 22.4945C18.748 22.5893 19.0683 22.6102 19.2318 22.6102C19.2387 22.5893 19.247 22.5639 19.2555 22.5342C19.2706 22.4857 19.2842 22.4383 19.2943 22.3854C19.3398 22.1508 19.3567 21.8841 19.36 21.7133C19.2487 21.645 19.0919 21.5227 19.0043 21.3398C18.9031 21.1283 18.7598 21.0313 18.549 21.0313C18.2759 21.0313 17.9826 21.1944 17.8578 21.2715C17.7584 21.8555 18.1916 22.3865 18.4833 22.4945Z" fill="white"/>
<path d="M24.487 20.2457C23.9829 20.79 22.9966 21.7386 22.9477 21.7871L22.8887 21.8477L19.7714 21.7982C19.7696 22.1056 19.719 22.3667 19.6702 22.5573C19.6618 22.5892 19.6534 22.6234 19.6449 22.6565L23.354 23.3187C23.7401 23.0498 24.8022 22.2797 25.2136 21.9778C24.9135 21.5425 24.8849 21.0258 24.9523 20.6622C24.7567 20.5366 24.6067 20.3966 24.487 20.2457Z" fill="white"/>
<path d="M24.9102 16.5194C24.192 17.2279 23.5025 17.4901 22.8871 17.5496C22.7758 17.5617 22.6629 17.5683 22.5482 17.5683H22.5397H22.533C22.4184 17.5683 22.3037 17.5617 22.1924 17.5496C22.0846 17.5397 21.9716 17.5231 21.8587 17.4978C21.8181 17.6576 21.7676 17.9903 21.9126 18.3054C22.0424 18.5919 22.3071 18.8046 22.6932 18.9456L22.823 18.9963L22.8246 19.1351C22.8246 19.177 22.8551 20.0782 23.8447 20.3283C24.0065 20.162 24.1532 20.0132 24.2612 19.8887C24.0588 19.416 24.165 18.9335 24.4584 18.6977C24.445 18.7484 24.3168 19.9306 25.271 20.3702L25.4279 20.4429L25.3806 20.6093C25.3654 20.66 25.0468 21.8037 26.2017 22.229L26.4057 22.3061L26.3146 22.5044C26.2945 22.5474 25.8408 23.5864 26.9082 24.1759H29.2229V22.3502C28.4002 22.2499 28.0512 21.5932 27.9618 21.1271C27.5792 21.0621 27.2824 20.898 27.08 20.6291C26.5945 19.9945 27.0126 19.4128 27.0177 19.3808C27.016 19.3863 27.0177 20.0066 27.4021 20.3878C27.5926 20.5729 27.8186 20.7151 28.1608 20.747L28.3294 20.7614L28.3446 20.9321C28.3479 20.9696 28.4407 21.807 29.2246 21.9392L29.2229 18.2107C29.2229 17.6322 29.3932 17.0505 29.5972 16.515H24.9102V16.5194Z" fill="white"/>
<path d="M18.6805 18.2283L18.6182 20.6038L18.8895 20.6446L19.5538 18.366L19.2167 17.6653L18.6805 18.2283Z" fill="white"/>
<path d="M26.0041 29.123C26.0244 29.123 26.048 29.1263 26.0699 29.1318C26.483 29.2486 26.5874 30.7305 27.3124 30.8627C27.3833 30.877 27.449 30.8814 27.5063 30.8814C27.7153 30.8814 27.8402 30.7922 27.975 30.6346C27.975 30.6346 27.6109 30.065 27.3377 29.6816C26.9753 29.1792 26.6936 28.571 26.0193 28.571C26.0041 28.571 25.9838 28.571 25.967 28.5721C25.7445 28.5842 25.6079 28.6911 25.6079 28.6911C25.3348 28.5203 25.0803 28.4619 24.8492 28.4619C24.4261 28.4619 24.0973 28.6547 23.9337 28.6547H23.927L22.4197 28.507C22.1837 28.485 21.9983 28.2492 21.9308 28.1567C21.914 28.1313 21.9055 28.117 21.9055 28.117C21.9055 28.0763 21.9055 28.0344 21.9022 27.998C21.8516 26.7728 20.8974 26.2484 20.5584 26.2406C20.5584 26.2406 20.5989 26.007 20.5062 25.9189L20.174 26.3189L19.0832 25.7746L19.8604 26.677L19.2012 27.413C19.1186 27.4967 19.1287 27.6102 19.1625 27.6576L19.4474 27.9077L19.8082 27.6895C19.8267 27.6763 19.8588 27.673 19.8992 27.673C19.9987 27.673 20.1488 27.6972 20.2836 27.6972C20.4303 27.6972 20.5584 27.6664 20.5736 27.5286C20.5281 27.9826 20.1049 28.7715 20.3831 29.3918L20.5888 29.859L19.2569 29.6684L18.633 30.7151C18.4409 31.0632 18.4106 31.4401 18.596 31.645L18.8286 31.9348C18.8286 31.9348 19.1557 31.5899 19.2299 31.3629L19.1237 31.2484C19.0343 31.1503 19.0394 31.0633 19.0934 30.9575L19.4845 30.3129L21.0574 30.682L21.1401 30.541C21.2463 30.3647 21.3998 30.3118 21.5684 30.3118C21.6374 30.3118 21.7083 30.3195 21.7824 30.3316C22.0741 30.3878 22.5546 30.465 23.0352 30.465C23.5628 30.465 24.0855 30.3713 24.3636 30.0617C24.9335 30.9013 26.0884 31.0346 25.9974 31.461L25.6939 32.8978C25.8945 32.89 26.0884 32.8768 26.2722 32.8515L26.5605 31.3552C26.5925 31.1922 26.6229 30.9729 26.6229 30.9729C26.5116 30.8605 26.2419 30.6225 26.0901 30.3349C25.8861 29.946 25.9974 29.7433 25.8069 29.2376C25.8136 29.2409 25.8709 29.123 26.0041 29.123ZM20.1201 27.0229C20.0426 27.0207 19.9869 26.9557 19.9902 26.8786C19.9971 26.8048 20.0594 26.7464 20.1352 26.753C20.2128 26.7563 20.2684 26.8235 20.2651 26.8973C20.2583 26.9711 20.1943 27.0273 20.1201 27.0229Z" fill="white"/>
<path d="M17.9724 30.4837C17.9724 30.4837 18.4933 30.2711 18.5405 30.119L18.4714 29.946C18.4225 29.8336 18.4292 29.7113 18.5236 29.6441L19.0867 29.2574L20.0276 29.437C20.0276 29.437 19.8572 29.2254 19.8741 28.9423L18.9772 28.7528L18.1308 29.2662C17.7683 29.5351 17.7413 29.9758 17.8611 30.238L17.9724 30.4837Z" fill="white"/>
<path d="M24.6219 32.9198C24.7905 32.9132 24.976 32.9099 25.18 32.9099C25.18 32.9099 25.6638 31.504 25.6908 31.4588C25.4194 31.3398 24.8563 31.0434 24.6388 30.9079C24.7822 31.1205 25.1311 31.3651 25.062 31.5525L24.6219 32.9198Z" fill="white"/>
<path d="M29.228 24.5835H15.8531V29.5824C15.8531 31.6263 17.3418 32.9066 19.5387 32.9066C21.3747 32.9066 21.8585 32.9771 22.5413 33.6503C23.0118 33.1842 23.4012 33.0101 24.2003 32.9451L24.2189 32.868L24.6404 31.5734C24.6168 31.5447 23.9273 30.7657 23.9273 30.7657C23.6542 30.8561 23.4249 30.8704 23.0387 30.8704C22.6426 30.8704 22.1958 30.8253 21.7119 30.7349C21.663 30.7239 21.6175 30.7206 21.572 30.7206C21.5129 30.7206 21.5078 30.725 21.4927 30.7536L21.4085 30.8914L21.255 31.1426L20.9666 31.0776L19.6837 30.7768L19.5083 31.0655L19.5353 31.0952L19.6921 31.266L19.623 31.4896C19.5286 31.7805 19.2217 32.121 19.1289 32.2146L18.8086 32.5562L18.517 32.1893L18.2978 31.9161C18.0668 31.6604 18.0129 31.266 18.1427 30.8539C18.1393 30.8572 18.1342 30.8594 18.1291 30.8594L17.7668 31.0082L17.6031 30.6567L17.4886 30.4066C17.2912 29.9681 17.3637 29.3268 17.8948 28.939L18.9284 28.3594L19.9113 28.5522C19.9349 28.4586 19.9703 28.1236 19.9989 28.0377C19.9804 28.0366 19.9619 28.0311 19.9433 28.0311L19.3768 28.2404L18.8306 27.8658C18.8306 27.8658 18.6165 27.6609 18.8103 27.457L19.3397 26.6604L17.9994 24.989L20.0596 25.8297L20.1962 25.66L20.4743 25.3306L20.7897 25.6291C20.879 25.714 20.9296 25.8197 20.9548 25.9255C21.523 26.1448 22.5397 26.7926 22.629 27.8471L22.3104 27.9738V27.9826C22.3829 28.0686 22.4436 28.1027 22.4621 28.1071L23.9323 28.2503C23.9694 28.2437 24.0167 28.2272 24.0689 28.2118C24.2509 28.1501 24.5258 28.0608 24.8512 28.0608C25.1158 28.0608 25.3721 28.1214 25.6182 28.236C25.7094 28.2018 25.8205 28.1765 25.9487 28.1688L26.0195 28.1666C26.8069 28.1666 27.198 28.7517 27.5116 29.2177C27.5639 29.2982 27.6161 29.3753 27.6701 29.4502C27.9449 29.8358 28.304 30.4 28.3192 30.4231L28.4811 30.6754L28.2821 30.9046C28.1287 31.0809 27.8994 31.2869 27.5049 31.2869C27.424 31.2869 27.3346 31.2781 27.2385 31.2594C27.1542 31.2451 27.0784 31.2197 27.0041 31.1889C26.9923 31.266 26.9772 31.3585 26.962 31.4368L26.7041 32.7744C28.2467 32.3976 29.2262 31.2395 29.2262 29.5846L29.228 24.5835Z" fill="#FFDD2D"/>
<path d="M15.853 24.1814H26.2538C25.7345 23.6481 25.7412 22.9738 25.8744 22.5342C25.7227 22.4625 25.598 22.3755 25.4867 22.2818C25.0803 22.5793 23.8395 23.4773 23.5158 23.7021L23.4467 23.7494L19.3649 23.0157H19.2823C19.1846 23.0157 19.0412 23.0124 18.8844 22.9936C18.8406 23.1765 18.6822 23.3021 18.5 23.3021C18.4798 23.3021 18.4562 23.2999 18.4342 23.2955C18.328 23.2768 18.2354 23.2228 18.173 23.1347C18.1089 23.0465 18.0837 22.9429 18.1022 22.836L18.1174 22.749C17.6958 22.4537 17.3081 21.7959 17.48 21.1018L17.4968 21.028L17.5559 20.9861C17.5644 20.9795 17.6351 20.9332 17.7397 20.8726L17.443 20.8275C17.3317 20.8065 17.2575 20.7052 17.2744 20.5961C17.2929 20.4859 17.3975 20.4066 17.507 20.4286L18.2134 20.5388L18.2775 18.0663L19.3296 16.9601L19.9854 18.333L19.2924 20.7118L19.9163 20.8087C20.0258 20.8253 20.1017 20.9277 20.0849 21.0401C20.068 21.1393 19.9837 21.2076 19.8842 21.2076C19.8741 21.2076 19.8623 21.2076 19.8522 21.2054L19.3447 21.1239C19.3515 21.1393 19.3615 21.147 19.3684 21.1635C19.4222 21.2748 19.542 21.3552 19.6127 21.3883L22.725 21.4368C22.8566 21.3101 23.1837 20.9916 23.5192 20.6545C22.7538 20.3669 22.4756 19.7091 22.4283 19.2739C22.0001 19.0932 21.7051 18.8222 21.5416 18.4685C21.3426 18.0311 21.4134 17.5936 21.4656 17.381C21.0509 17.2301 20.6143 16.9557 20.1692 16.5161H15.4822C15.6828 17.0527 15.853 17.6333 15.853 18.2118V24.1814Z" fill="#FFDD2D"/>
<path d="M20.137 26.753C20.0612 26.7464 19.9971 26.8048 19.992 26.8786C19.9869 26.9557 20.0443 27.0207 20.1218 27.0229C20.196 27.0295 20.2617 26.9722 20.2685 26.8973C20.2685 26.8235 20.2146 26.7541 20.137 26.753Z" fill="black"/>
<path d="M29.2092 35.8186L28.4387 35.5245L28.6513 34.7345L28.8855 33.8718C28.8855 33.8718 27.5199 34.6067 25.5963 35.1598C25.05 35.3151 24.6369 35.3856 24.6369 35.3856V35.9718C24.6369 35.9718 23.6085 36.1503 22.5682 36.1503H22.5564H22.5413H22.521H22.5092C21.469 36.1503 20.4406 35.9718 20.4406 35.9718V35.3856C20.4406 35.3856 20.0258 35.3151 19.4813 35.1598C17.5575 34.6067 16.1936 33.8718 16.1936 33.8718L16.4246 34.7345L16.642 35.5245L15.8699 35.8186L15.0134 36.136C15.9963 36.6076 17.3569 37.294 18.6028 37.6322L18.3095 38.4299C18.3095 38.4299 19.8893 39.145 22.521 39.1516V39.1538H22.5295H22.5413H22.5513H22.5582V39.1516C25.1932 39.145 26.7714 38.4299 26.7714 38.4299L26.4763 37.6322C27.7222 37.294 29.0861 36.6076 30.064 36.136L29.2092 35.8186ZM15.9272 36.19L17.195 35.7713L16.8207 34.5571C17.3788 34.8711 18.6315 35.3438 19.3564 35.563L18.7445 37.2334C17.6249 36.9271 16.6927 36.5701 15.9272 36.19ZM22.5413 38.7329C21.0694 38.7329 19.3885 38.3969 18.8945 38.2228L19.6464 36.1999C20.2703 36.3806 21.5684 36.5734 22.5109 36.5668H22.5125H22.5413H22.5665H22.57C23.5123 36.5734 24.8072 36.3806 25.4344 36.1999L26.1846 38.2228C25.6906 38.398 24.0114 38.7329 22.5413 38.7329ZM26.3347 37.2334L25.7244 35.563C26.4511 35.3438 27.7003 34.8711 28.26 34.5571L27.8875 35.7713L29.1536 36.19C28.3865 36.5701 27.4592 36.9271 26.3347 37.2334Z" fill="black"/>
<path d="M22.5398 4.25409C24.1078 4.25409 25.3621 4.76973 26.055 5.32173C26.055 5.32173 26.2607 4.08991 26.9638 3.00242L25.701 3.14456L25.04 1.74968L23.7705 2.39974L22.5398 1.18996L21.3124 2.39974L20.0411 1.74968L19.3819 3.14456L18.1191 3.00242C18.8222 4.08991 19.0279 5.32173 19.0279 5.32173C19.7225 4.76973 20.9735 4.25409 22.5398 4.25409ZM19.3246 3.63376L19.6753 3.67123L19.827 3.35502L20.2688 2.41628L21.0882 2.83715L21.4052 2.99804L21.658 2.75013L22.5415 1.87859L23.4267 2.75013L23.6795 2.99804L23.9965 2.83715L24.8107 2.41628L25.2575 3.35502L25.4059 3.67123L25.7566 3.63376L26.0904 3.59411C25.937 3.93787 25.8241 4.2629 25.7431 4.53175C24.8597 4.04254 23.7098 3.76489 22.538 3.76489C21.3715 3.76489 20.2233 4.04254 19.3364 4.53175C19.2539 4.2629 19.1426 3.93567 18.9891 3.59411L19.3246 3.63376Z" fill="black"/>
<path d="M40.9352 20.5939C42.9634 20.5939 43.6412 18.5434 43.6699 18.4564L43.8958 17.7347L43.1354 17.7578H43.132C42.8639 17.7578 40.6267 17.6994 39.0402 15.6953L38.8901 15.509C37.8532 14.199 36.8703 12.954 35.1136 12.3865C35.1642 12.3414 35.2367 12.2841 35.3362 12.2202C36.2685 11.6109 36.8114 10.8704 36.9479 10.011C37.1469 8.71751 36.3173 7.68732 36.2803 7.64546L35.7155 6.95131L35.3632 7.77436C35.3395 7.82614 34.746 9.14279 33.4985 9.14279H33.4057C33.3197 9.13729 33.2388 9.13399 33.1579 9.12738C33.2017 8.54012 33.0938 7.63002 32.2643 6.77722C31.2679 5.75033 30.0438 5.59608 29.4033 5.59608C29.0609 5.59608 28.8334 5.63797 28.8097 5.64128L27.9567 5.80875L28.4827 6.49738C28.8958 7.02845 29.2701 8.00905 28.8266 8.52139C28.685 8.68335 28.3933 8.81558 28.1135 8.9489C27.5386 9.21113 26.7545 9.57692 26.7545 10.5079C26.7545 11.1117 27.225 11.7409 28.078 12.2775C30.6036 13.8552 32.1614 15.5024 32.8342 17.3204C33.8744 20.1168 32.5172 21.7111 31.1988 22.5507L30.607 22.9297L31.1246 23.4024C31.1937 23.4619 31.8277 24.0172 32.7633 24.0976C32.9404 24.1087 33.1106 24.1186 33.2692 24.1186C33.8693 24.1186 34.3802 24.0249 34.795 23.8993C34.6803 24.0987 34.5403 24.3015 34.3634 24.5064C33.6097 25.3735 32.6825 25.7691 31.3488 25.7889L30.8531 25.7977L30.8143 26.2924C30.8093 26.3905 30.7723 27.3072 31.6455 28.0862C31.7788 28.2074 31.9406 28.3054 32.1092 28.3881C31.5174 28.9169 30.9155 29.8392 30.7991 31.4191C30.7014 32.7369 30.3844 33.225 30.3811 33.2294L29.8332 34.0613L30.8228 34.0745C32.4581 34.0745 33.7109 33.625 34.5791 32.7369C35.0917 32.2113 35.385 31.6186 35.5587 31.0919C35.8437 31.3332 36.2111 31.5447 36.69 31.656C36.8721 31.6979 37.071 31.7221 37.2851 31.7221C37.747 31.7221 38.1331 31.6252 38.1769 31.6142L38.8092 31.4467L38.5293 30.8605C38.5091 30.8142 37.9814 29.6375 38.5496 27.9595C38.7941 27.2334 38.9188 26.5833 38.9795 26.0776C39.3774 26.2836 39.9102 26.4544 40.5997 26.4566C42.1643 26.4566 42.8539 25.2953 42.8859 25.2468L43.1945 24.7135L42.6228 24.4789C40.7582 23.7098 40.3451 21.645 40.2626 20.5256C40.4311 20.5575 40.6233 20.5873 40.8408 20.5939H40.9352ZM42.4138 24.9736C42.4138 24.9736 41.8676 25.9167 40.6149 25.9167H40.5997C39.0959 25.9079 38.4889 24.9967 38.4889 24.9967C38.4889 24.9967 38.5766 26.1834 38.0337 27.7832C37.3812 29.7113 38.0388 31.0908 38.0388 31.0908C38.0388 31.0908 37.6881 31.1844 37.2834 31.1844C37.1284 31.1844 36.9665 31.169 36.8147 31.1294C35.5587 30.8319 35.245 29.6959 35.245 29.6959C35.245 29.6959 35.3614 33.5346 30.8582 33.5346H30.8228C30.8228 33.5346 31.219 32.998 31.337 31.4555C31.5511 28.6073 33.4916 28.2173 33.4916 28.2173C33.4916 28.2173 32.4565 28.0884 32.008 27.6873C31.3066 27.056 31.3556 26.3255 31.3556 26.3255C32.9404 26.3035 33.9772 25.768 34.768 24.8579C35.6244 23.8729 35.7661 22.8118 35.7661 22.8118C35.7661 22.8118 34.9146 23.5798 33.2674 23.5798C33.1224 23.5798 32.9674 23.5732 32.8088 23.5577C32.03 23.496 31.4904 23.0035 31.4904 23.0035C33.205 21.9105 34.4089 20.0044 33.3417 17.1331C32.4869 14.8325 30.4333 13.1137 28.3664 11.818C27.6785 11.3916 27.2957 10.9167 27.2957 10.5079C27.2957 9.54607 28.6716 9.51631 29.2363 8.86955C29.8871 8.11922 29.4791 6.90062 28.9143 6.16902C28.9143 6.16902 29.1048 6.13047 29.4049 6.13047C30 6.13047 31.0302 6.27922 31.8765 7.15075C33.0011 8.30654 32.534 9.56479 32.534 9.56479L32.8358 9.62319C33.0162 9.66176 33.1949 9.66837 33.3805 9.67718C33.4209 9.67718 33.4613 9.67939 33.5018 9.67939C35.1355 9.67939 35.8655 7.98151 35.8655 7.98151C35.8655 7.98151 37.602 10.1047 35.0462 11.7662C34.6061 12.0516 34.4122 12.3138 34.4628 12.5959L34.5033 12.7799L34.6853 12.8118C36.5382 13.3109 37.4756 14.5813 38.6204 16.0258C40.3586 18.2217 42.8184 18.2922 43.122 18.2922H43.1539C43.1539 18.2922 42.5925 20.0529 40.9386 20.0529C40.9116 20.0529 40.8881 20.0529 40.8594 20.0507C40.0989 20.0242 39.7096 19.7345 39.7096 19.7345C39.7096 19.7345 39.4111 23.734 42.4138 24.9736Z" fill="black"/>
<path d="M37.3727 12.608C38.1297 13.0079 38.5697 13.5445 38.9558 14.0194C39.3352 14.4843 39.6959 14.9317 40.259 15.1168C40.4597 15.1862 40.6721 15.2182 40.8879 15.2182C41.7342 15.2182 42.5841 14.7036 42.906 13.9907L43.2297 13.2779L42.4458 13.2305C42.4086 13.2294 41.4005 13.1391 40.2776 11.9976C39.8157 11.5304 39.2576 11.2836 38.6557 11.2836C37.9207 11.2836 37.376 11.6494 37.3153 11.6858L36.5938 12.1904L37.3727 12.608ZM38.6574 11.8235C39.035 11.8235 39.4751 11.9502 39.8916 12.3777C41.1981 13.6966 42.4137 13.7704 42.4137 13.7704C42.1929 14.2563 41.5522 14.6827 40.8896 14.6827C40.7362 14.6827 40.5827 14.6595 40.4294 14.6078C39.5307 14.3059 39.2087 12.9661 37.6289 12.132C37.6289 12.132 38.0707 11.8235 38.6574 11.8235Z" fill="black"/>
<path d="M37.7268 19.7268V19.7532C37.2716 16.104 34.6044 13.4685 31.6371 11.8654C31.3623 11.7199 31.1094 11.5954 30.8633 11.4764C31.7669 11.6153 33.2219 11.6329 34.3448 10.6644C34.3448 10.6644 32.6267 11.9205 29.1064 10.7801C30.081 11.4081 31.9742 12.294 33.7024 13.7296C38.0235 17.5033 34.9315 21.1833 34.9315 21.1833C36.4843 19.5736 36.5483 17.8482 36.0915 16.439C36.9091 17.7909 37.4317 19.4326 37.3508 21.4566C37.2312 24.3565 35.6278 26.8654 33.9401 28.8806C33.1291 29.859 32.9471 31.06 32.9471 31.06C32.9471 31.06 33.2741 30 34.2132 28.9092C36.0223 26.8048 37.5683 24.6188 37.7706 21.4687C37.9578 22.0395 38.7283 23.6294 39.9505 24.2277C39.954 24.2299 38.418 23.3098 37.7268 19.7268Z" fill="black"/>
<path d="M14.6982 33.2283C14.6965 33.2228 14.3828 32.7358 14.2817 31.4169C14.1637 29.8369 13.5635 28.9158 12.9701 28.3859C13.142 28.3054 13.3005 28.2074 13.4337 28.0851C14.3054 27.3061 14.2683 26.3894 14.2632 26.2902L14.2295 25.7955L13.7305 25.7878C12.4002 25.7658 11.4712 25.3702 10.7176 24.5042C10.5423 24.3004 10.4007 24.0976 10.286 23.8982C10.7007 24.0238 11.2082 24.1175 11.8101 24.1175C11.972 24.1175 12.1389 24.1076 12.3159 24.0954C13.2516 24.015 13.8855 23.4619 13.9563 23.4002L14.474 22.9275L13.8822 22.5496C12.5587 21.7078 11.2065 20.1135 12.2451 17.3182C12.9178 15.5013 14.474 13.8541 17.0029 12.2752C17.856 11.7398 18.323 11.1095 18.323 10.5068C18.323 9.57471 17.5407 9.20782 16.9658 8.94669C16.6859 8.81447 16.3943 8.68224 16.2526 8.51917C15.8076 8.00904 16.1835 7.02624 16.5948 6.49517L17.1242 5.80654L16.2678 5.63906C16.2425 5.63576 16.0183 5.59387 15.6744 5.59387C15.0337 5.59387 13.813 5.74812 12.815 6.77501C11.9838 7.63001 11.8741 8.54011 11.9163 9.12627C11.8353 9.13288 11.7545 9.1362 11.6702 9.14061H11.5792C10.3282 9.14061 9.73641 7.82393 9.71272 7.77215L9.36036 6.9502L8.79051 7.64324C8.75856 7.68511 7.92559 8.7175 8.12799 10.0088C8.26285 10.8682 8.80571 11.6086 9.73806 12.2191C9.83921 12.283 9.91005 12.3391 9.96062 12.3843C8.20556 12.9529 7.22429 14.199 6.18738 15.509L6.03731 15.6953C4.45258 17.6994 2.21019 17.7578 1.94212 17.7578L1.17834 17.7336L1.41105 18.4564C1.43804 18.5434 2.11411 20.5939 4.14397 20.5939L4.24181 20.5906C4.45589 20.584 4.64816 20.5553 4.82004 20.5223C4.73575 21.6395 4.32268 23.7054 2.45633 24.4755L1.88648 24.7102L2.19498 25.2435C2.22539 25.292 2.91667 26.4533 4.48454 26.4533C5.16909 26.4511 5.70181 26.2803 6.10144 26.0743C6.16215 26.58 6.28687 27.2301 6.53136 27.9551C7.09957 29.6342 6.57015 30.8109 6.54987 30.8572L6.27002 31.4434L6.90399 31.6109C6.94608 31.6219 7.33557 31.7188 7.7958 31.7188C8.01164 31.7188 8.21052 31.6946 8.38923 31.6527C8.86973 31.5414 9.24071 31.3299 9.52222 31.0886C9.69421 31.6142 9.98928 32.208 10.5001 32.7336C11.3701 33.6216 12.621 34.0712 14.2565 34.0712L15.2478 34.0569L14.6982 33.2283ZM14.2193 33.5346C9.71614 33.5346 9.83073 29.6959 9.83073 29.6959C9.83073 29.6959 9.51715 30.8319 8.26109 31.1282C8.11113 31.169 7.95093 31.1844 7.79415 31.1844C7.38945 31.1844 7.04051 31.0897 7.04051 31.0897C7.04051 31.0897 7.69465 29.7113 7.04216 27.7832C6.50272 26.1834 6.59031 24.9967 6.59031 24.9967C6.59031 24.9967 5.98509 25.9079 4.47947 25.9167H4.46437C3.21162 25.9167 2.66545 24.9736 2.66545 24.9736C5.66645 23.7351 5.37138 19.7378 5.37138 19.7378C5.37138 19.7378 4.98189 20.0264 4.21988 20.054C4.19289 20.0562 4.16766 20.0562 4.14066 20.0562C2.48498 20.0562 1.92526 18.2955 1.92526 18.2955H1.95897C2.26417 18.2955 4.72065 18.225 6.45886 16.0291C7.60364 14.5846 8.54271 13.3164 10.3922 12.8151L10.5776 12.7832L10.6181 12.5992C10.6688 12.3171 10.4765 12.0549 10.0364 11.7695C7.48057 10.1058 9.21713 7.98481 9.21713 7.98481C9.21713 7.98481 9.94377 9.68048 11.5808 9.68048C11.6213 9.68048 11.6584 9.67938 11.7005 9.67938C11.8843 9.66836 12.0664 9.66175 12.2451 9.62319L12.5469 9.56479C12.5469 9.56479 12.0798 8.30653 13.2061 7.15074C14.0524 6.27811 15.0826 6.13046 15.676 6.13046C15.9778 6.13046 16.165 6.16901 16.165 6.16901C15.6019 6.90282 15.1939 8.11921 15.8446 8.86954C16.4077 9.5152 17.7818 9.54606 17.7818 10.5079C17.7818 10.9156 17.399 11.3916 16.7112 11.818C14.6425 13.1137 12.589 14.8325 11.736 17.1331C10.6704 20.0044 11.8725 21.9094 13.5905 23.0035C13.5905 23.0035 13.051 23.496 12.2703 23.5577C12.1119 23.5732 11.9584 23.5798 11.8101 23.5798C10.1646 23.5798 9.31321 22.8118 9.31321 22.8118C9.31321 22.8118 9.45479 23.8729 10.3063 24.8579C11.102 25.768 12.1389 26.3035 13.7236 26.3255C13.7236 26.3255 13.7743 27.056 13.0729 27.6873C12.6227 28.0862 11.5876 28.2173 11.5876 28.2173C11.5876 28.2173 13.5298 28.6073 13.7422 31.4555C13.8586 32.998 14.2514 33.5346 14.2514 33.5346H14.2193Z" fill="black"/>
<path d="M4.18967 15.2193C4.40717 15.2193 4.61959 15.1873 4.82012 15.119C5.38667 14.9328 5.74575 14.4854 6.1251 14.0216C6.51294 13.5456 6.94958 13.0101 7.70653 12.6091L8.4855 12.1937L7.76217 11.6902C7.70146 11.6516 7.1586 11.288 6.42523 11.288C5.82166 11.288 5.26195 11.5326 4.80161 12.0009C3.67876 13.1402 2.67226 13.2327 2.63513 13.2338L1.8512 13.2801L2.17325 13.9951C2.49696 14.7036 3.34492 15.2193 4.18967 15.2193ZM5.18769 12.3799C5.60582 11.9524 6.04588 11.8257 6.42523 11.8257C7.00853 11.8257 7.45025 12.1331 7.45025 12.1331C5.87224 12.9694 5.54853 14.3081 4.64648 14.61C4.49818 14.6617 4.34304 14.6849 4.18967 14.6849C3.52704 14.6849 2.88634 14.2596 2.66719 13.7726C2.66719 13.7704 3.88105 13.6966 5.18769 12.3799Z" fill="black"/>
<path d="M7.72855 21.4588C7.64426 19.4348 8.16696 17.7931 8.98626 16.4412C8.52934 17.8504 8.59182 19.5758 10.1462 21.1855C10.1462 21.1855 7.05413 17.5044 11.377 13.7318C13.1068 12.2962 14.9985 11.4092 15.9713 10.7812C12.4527 11.9227 10.7346 10.6655 10.7346 10.6655C11.8575 11.634 13.3125 11.6175 14.2161 11.4764C13.9717 11.5954 13.7154 11.7199 13.444 11.8654C10.4733 13.4685 7.80777 16.104 7.35085 19.7532V19.7245C6.66134 23.3087 5.12708 24.2276 5.12708 24.2276C6.34777 23.6305 7.11661 22.0417 7.3037 21.4687C7.50775 24.6188 9.05369 26.8048 10.8627 28.9092C11.8018 30 12.1323 31.06 12.1323 31.06C12.1323 31.06 11.9486 29.859 11.1342 28.8806C9.4499 26.8687 7.84655 24.3587 7.72855 21.4588Z" fill="black"/>
<path d="M21.5232 14.0756V14.7995C21.7744 14.4954 22.26 14.5582 22.26 14.5582V15.6016C22.26 15.6016 22.2431 16.1139 22.0593 16.3365H22.5853H23.1097C22.9293 16.1161 22.9107 15.6016 22.9107 15.6016V14.5582C22.9107 14.5582 23.3963 14.4954 23.6458 14.7995V14.0756H22.5853H21.5232Z" fill="black"/>
<path d="M21.0711 9.78295C21.4066 10.0474 21.6005 10.0915 21.6072 10.0959L21.7388 10.1565V9.47444L20.5046 8.9588C20.5046 8.9599 20.5164 9.35435 21.0711 9.78295Z" fill="black"/>
<path d="M24.0064 9.78295C24.5645 9.35435 24.5746 8.9588 24.5746 8.9588L23.3405 9.47444V10.1565L23.4703 10.0959C23.4787 10.0915 23.6709 10.0474 24.0064 9.78295Z" fill="black"/>
<path d="M26.2302 7.0064C26.2302 5.9729 24.4785 5.04297 22.5447 5.04297H22.543H22.538H22.5329C20.5991 5.04297 18.8474 5.9729 18.8474 7.0064L18.8861 7.26092L19.6583 11.6659L18.8827 12.1133L16.8764 13.2779H16.8833C16.8833 13.2779 16.4314 13.5071 16.2223 13.6492C15.4585 14.177 15.2967 14.946 15.7402 15.2644C15.8497 14.6386 16.3488 13.9808 17.2828 13.9808C17.9555 13.9808 18.468 14.3268 18.8827 14.8446C18.9889 14.9747 19.0902 15.1135 19.1846 15.2644C19.3009 15.4539 19.4172 15.6203 19.5336 15.7812H14.3661C14.7454 16.5392 15.1062 17.3435 15.1062 18.2162V29.5824C15.1062 32.3336 17.2356 33.647 19.5386 33.647C21.319 33.647 21.5584 33.5666 22.5413 34.5384C23.5192 33.5644 23.7586 33.647 25.5406 33.647C27.8454 33.647 29.9714 32.3336 29.9714 29.5824V18.2162C29.9714 17.3435 30.3322 16.5392 30.7132 15.7812H25.544C25.6587 15.6214 25.775 15.4539 25.8913 15.2644C25.9874 15.1135 26.0869 14.9747 26.1915 14.8446C26.6096 14.3246 27.1204 13.9808 27.7931 13.9808C28.7272 13.9808 29.2245 14.6364 29.3358 15.2644C29.7792 14.946 29.6191 14.177 28.8502 13.6492C28.6445 13.5071 28.1927 13.2779 28.1927 13.2779H28.1994L26.1931 12.1133L25.421 11.6659L26.1931 7.26092L26.2302 7.0064ZM19.6077 7.51983L22.3221 8.43433V12.6708L20.3243 11.6241L19.6077 7.51983ZM20.1692 16.5194C20.6142 16.9601 21.051 17.2334 21.4657 17.3843C21.4117 17.597 21.341 18.0355 21.5415 18.4729C21.7051 18.8244 22.0018 19.0965 22.4283 19.2772C22.4756 19.7124 22.7521 20.368 23.5192 20.6578C23.1836 20.9949 22.8566 21.3112 22.7234 21.4401L19.6128 21.3916C19.5419 21.3563 19.4223 21.2781 19.3683 21.1657C19.3616 21.1503 19.3514 21.1415 19.3464 21.1249L19.8539 21.2076C19.8656 21.2087 19.8758 21.2087 19.8859 21.2087C19.9838 21.2087 20.0697 21.1415 20.0866 21.0412C20.1034 20.9288 20.0275 20.8275 19.918 20.8098L19.2941 20.7129L19.9871 18.3352L19.3313 16.9634L18.2792 18.0696L18.2151 20.5421L17.5087 20.4319C17.3991 20.4099 17.2946 20.4903 17.2761 20.5994C17.2592 20.7085 17.3334 20.8098 17.4447 20.8308L17.7414 20.876C17.6352 20.9355 17.5661 20.9828 17.5576 20.9894L17.4969 21.0313L17.48 21.1051C17.3081 21.7981 17.6975 22.457 18.1173 22.7523L18.1022 22.8394C18.0853 22.9462 18.1089 23.0498 18.1729 23.1368C18.2337 23.2261 18.3281 23.2801 18.4326 23.2977C18.4546 23.301 18.4781 23.3032 18.4984 23.3032C18.6804 23.3032 18.839 23.1776 18.8845 22.9947C19.0413 23.0135 19.1845 23.0168 19.2824 23.0168H19.365L23.4467 23.7483L23.5158 23.7032C23.8412 23.4773 25.0804 22.5793 25.4867 22.2829C25.598 22.3788 25.7227 22.4658 25.8745 22.5375C25.743 22.976 25.7345 23.6514 26.2555 24.1847H15.8531V18.2184C15.8531 17.6399 15.6829 17.0593 15.4822 16.5227H20.1692V16.5194ZM25.2136 21.9778C24.8005 22.2797 23.7384 23.0498 23.354 23.3187L19.6448 22.6565C19.6532 22.6234 19.6617 22.5914 19.6701 22.5573C19.719 22.3667 19.7679 22.1056 19.7713 21.7982L22.8887 21.8488L22.9476 21.7882C22.9949 21.742 23.9829 20.7933 24.487 20.2468C24.6066 20.3966 24.7567 20.5388 24.9523 20.6644C24.8848 21.0258 24.9135 21.5425 25.2136 21.9778ZM19.0041 21.3398C19.0919 21.5227 19.2503 21.645 19.3599 21.7133C19.3565 21.8841 19.3396 22.1507 19.2941 22.3854C19.284 22.4372 19.2706 22.4857 19.2554 22.5342C19.247 22.5639 19.2385 22.5893 19.2318 22.6091C19.0683 22.6091 18.7462 22.5893 18.4832 22.4934C18.1916 22.3865 17.7566 21.8554 17.8577 21.2704C17.9842 21.1944 18.2758 21.0313 18.549 21.0313C18.7597 21.0302 18.903 21.1283 19.0041 21.3398ZM18.6181 20.6038L18.6804 18.2305L19.2166 17.6653L19.5538 18.366L18.8896 20.6446L18.6181 20.6038ZM25.1799 32.911C24.9776 32.911 24.7904 32.9143 24.6218 32.922L25.0635 31.5558C25.1326 31.3662 24.7837 31.1238 24.6403 30.9112C24.8578 31.0467 25.421 31.3431 25.6924 31.4621C25.6637 31.5062 25.1799 32.911 25.1799 32.911ZM26.5657 31.3596L26.2774 32.8548C26.0936 32.8801 25.898 32.8933 25.6974 32.9011L26.001 31.4643C26.092 31.0368 24.937 30.9046 24.3672 30.065C24.0891 30.3768 23.5647 30.4683 23.0386 30.4683C22.5581 30.4683 22.0776 30.3911 21.786 30.335C21.7118 30.3228 21.641 30.3151 21.5719 30.3151C21.4033 30.3151 21.2498 30.3669 21.1436 30.5443L21.0594 30.6853L19.4864 30.3162L19.0952 30.9597C19.0396 31.0632 19.0362 31.1525 19.1256 31.2495L19.2318 31.3652C19.1593 31.5932 18.8322 31.9359 18.8322 31.9359L18.5978 31.6461C18.4124 31.4401 18.4428 31.0654 18.6366 30.7162L19.2604 29.6695L20.5924 29.8601L20.3849 29.3918C20.1068 28.7715 20.5299 27.9826 20.5755 27.5287C20.5603 27.6664 20.4339 27.6961 20.2856 27.6961C20.1506 27.6961 20.0006 27.6708 19.9011 27.6708C19.8623 27.6708 19.8286 27.6741 19.81 27.6873L19.4493 27.9055L19.1643 27.6553C19.1306 27.6069 19.1188 27.4945 19.2031 27.4108L19.8623 26.677L19.0834 25.7746L20.1743 26.3189L20.5063 25.9189C20.5974 26.007 20.5586 26.2395 20.5586 26.2395C20.8991 26.2484 21.8534 26.7728 21.904 27.9958C21.9074 28.0333 21.9074 28.0752 21.9074 28.1148C21.9074 28.1148 21.9158 28.1302 21.9326 28.1556C22.0002 28.247 22.1856 28.4839 22.4216 28.5049L23.9289 28.6525H23.9356C24.1009 28.6525 24.4297 28.4597 24.8511 28.4597C25.0804 28.4597 25.3367 28.5181 25.6098 28.69C25.6098 28.69 25.7463 28.582 25.9689 28.571C25.9857 28.5688 26.0043 28.5688 26.0211 28.5688C26.6972 28.5688 26.9772 29.1759 27.3395 29.6794C27.6127 30.0628 27.9769 30.6324 27.9769 30.6324C27.842 30.7922 27.7172 30.8792 27.5082 30.8792C27.4508 30.8792 27.3851 30.8737 27.3143 30.8605C26.5893 30.7283 26.4848 29.2475 26.0717 29.1296C26.0499 29.123 26.0262 29.1219 26.006 29.1219C25.8728 29.1219 25.8138 29.2387 25.8138 29.2387C26.0026 29.7433 25.893 29.9482 26.0954 30.3361C26.2471 30.6247 26.5168 30.8627 26.6281 30.9751C26.6281 30.9784 26.5978 31.1955 26.5657 31.3596ZM18.4714 29.946L18.5405 30.119C18.495 30.2688 17.9723 30.4837 17.9723 30.4837L17.8594 30.2391C17.7397 29.978 17.7649 29.5372 18.1292 29.2673L18.9755 28.7549L19.8725 28.9445C19.8556 29.2276 20.0259 29.4381 20.0259 29.4381L19.0851 29.2596L18.522 29.6463C18.4276 29.7113 18.4208 29.8336 18.4714 29.946ZM26.7073 32.7722L26.9653 31.4357C26.9788 31.3563 26.9957 31.2649 27.0075 31.1877C27.08 31.2175 27.1575 31.2429 27.2418 31.2583C27.3379 31.2759 27.4272 31.2847 27.5082 31.2847C27.9027 31.2847 28.132 31.0787 28.2854 30.9024L28.4843 30.6732L28.3225 30.422C28.3074 30.3967 27.9499 29.8336 27.6734 29.448C27.6195 29.3731 27.5672 29.2982 27.5149 29.2155C27.2014 28.7495 26.8085 28.1655 26.0211 28.1655L25.9504 28.1666C25.8206 28.1754 25.7093 28.2007 25.6199 28.2338C25.372 28.1181 25.1175 28.0597 24.8528 28.0597C24.5274 28.0597 24.2526 28.1479 24.0705 28.2107C24.0183 28.225 23.971 28.2426 23.934 28.2492L22.4621 28.1049C22.4435 28.1016 22.3828 28.0663 22.3103 27.9793V27.9727L22.629 27.8449C22.5396 26.7916 21.5213 26.1426 20.9531 25.9233C20.9279 25.8175 20.8773 25.7129 20.788 25.6269L20.471 25.3283L20.1928 25.66L20.0563 25.8297L17.996 24.989L19.3363 26.6604L18.8069 27.4559C18.613 27.6609 18.8272 27.8647 18.8272 27.8647L19.3734 28.2393L19.9399 28.0289C19.9601 28.0289 19.9769 28.0344 19.9956 28.0366C19.9686 28.1214 19.9332 28.4564 19.9095 28.55L18.9266 28.3583L17.8931 28.9379C17.362 29.3246 17.2895 29.9659 17.4869 30.4055L17.6014 30.6545L17.7649 31.0071L18.1258 30.8572C18.1309 30.8561 18.1359 30.8539 18.1392 30.8506C18.0094 31.2627 18.0617 31.6549 18.2944 31.9127L18.5135 32.1882L18.8053 32.5551L19.1256 32.2124C19.22 32.1188 19.5251 31.7794 19.6195 31.4874L19.6887 31.2649L19.5319 31.0941L19.5066 31.0633L19.682 30.7757L20.9649 31.0754L21.2533 31.1404L21.4066 30.8892L21.4909 30.7514C21.5061 30.7239 21.5112 30.7184 21.5703 30.7184C21.6158 30.7184 21.6613 30.7239 21.7102 30.7338C22.194 30.8242 22.6408 30.8693 23.037 30.8693C23.4214 30.8693 23.6507 30.8539 23.9255 30.7636C23.9255 30.7636 24.6151 31.5414 24.6387 31.5712L24.2171 32.8647L24.1986 32.9429C23.3995 33.0068 23.01 33.1809 22.5396 33.6481C21.8568 32.9749 21.3729 32.9044 19.537 32.9044C17.3401 32.9044 15.8514 31.6252 15.8514 29.5813V24.5835H29.2245L29.2279 29.5813C29.2296 31.2395 28.25 32.3953 26.7073 32.7722ZM29.5988 16.5194C29.3947 17.056 29.2245 17.6366 29.2245 18.2151L29.2262 21.9447C28.4422 21.8136 28.3494 20.974 28.3461 20.9376L28.3309 20.7668L28.1624 20.7514C27.8218 20.7195 27.5958 20.5751 27.4053 20.3911C27.0209 20.0088 27.0192 19.3896 27.0209 19.3841C27.0159 19.4161 26.5978 19.9978 27.0834 20.6324C27.2873 20.9002 27.5824 21.0643 27.965 21.1305C28.0544 21.5954 28.4034 22.2532 29.2262 22.3535V24.1792H26.913C25.8458 23.5897 26.2977 22.5507 26.3196 22.5077L26.4106 22.3094L26.2067 22.2323C25.0517 21.807 25.3687 20.6611 25.3856 20.6126L25.4328 20.4451L25.276 20.3713C24.3217 19.9328 24.4515 18.7473 24.4634 18.6988C24.17 18.9357 24.0638 19.4182 24.266 19.8909C24.1565 20.0143 24.0098 20.1653 23.8497 20.3294C22.8617 20.0793 22.8313 19.177 22.8313 19.1351L22.8296 18.9963L22.6998 18.9456C22.3138 18.8035 22.049 18.5908 21.9192 18.3043C21.7725 17.987 21.8248 17.6554 21.8652 17.4967C21.9783 17.5209 22.0912 17.5397 22.1991 17.5485C22.3103 17.5595 22.425 17.5661 22.5396 17.5661H22.5463H22.5548C22.6694 17.5661 22.7825 17.5595 22.8937 17.5485C23.5091 17.4879 24.1986 17.2246 24.9169 16.5183H29.5988V16.5194ZM25.9942 12.7501L26.908 13.2779H26.9215L27.1508 13.4101C26.6348 13.5522 26.2404 13.809 25.9099 14.145C25.898 14.156 25.8863 14.1693 25.8745 14.1803C25.7987 14.2607 25.7227 14.3477 25.6519 14.437C25.6385 14.4535 25.625 14.4722 25.6098 14.491C25.539 14.5813 25.4732 14.6728 25.4092 14.7708C25.399 14.7874 25.3872 14.8039 25.3755 14.8193C25.2995 14.9317 25.227 15.0518 25.1545 15.1763C24.5038 16.2902 23.4653 16.9546 22.5413 16.9568C21.6191 16.9546 20.5805 16.2902 19.9298 15.1763C19.8589 15.0551 19.7882 14.9383 19.7123 14.8237C19.6971 14.8028 19.6836 14.7807 19.6701 14.762C19.6061 14.6695 19.5419 14.5791 19.4763 14.4943C19.4594 14.47 19.4442 14.4524 19.4274 14.4315C19.3565 14.3466 19.284 14.2607 19.2115 14.1825C19.1964 14.1704 19.1863 14.156 19.1711 14.1417C18.839 13.8056 18.4461 13.5511 17.9286 13.4101L18.1612 13.2779H18.1713L19.0851 12.7501L20.0242 12.2157L22.5329 13.5721L22.538 13.5677L22.5447 13.5721L25.0534 12.2157L25.9942 12.7501ZM24.7567 11.6263L22.7571 12.673V8.43433L25.4699 7.51983L24.7567 11.6263ZM22.5396 7.96827L19.5656 6.80037C19.8185 6.2054 20.9852 5.69967 22.5396 5.69857C24.0958 5.69967 25.2625 6.2054 25.5137 6.80037L22.5396 7.96827Z" fill="black"/>
<path d="M59.3685 18.9654V12.2576H63.3282V9.816H52.5255V12.2576H56.4852V18.9654H59.3685ZM67.2693 15.1399V9.816H64.4818V18.9654H66.9421L71.7482 13.6415V18.9654H74.5358V9.816H72.0743L67.2693 15.1399ZM83.9121 15.563V18.9654H86.6997V9.816H83.9121V13.16H79.4333V9.816H76.6457V18.9654H79.4333V15.563H83.9121ZM94.4608 18.9654C95.0955 18.9654 95.6728 18.9081 96.2105 18.7539C97.6517 18.3506 98.5937 17.1783 98.5937 15.5829C98.5937 14.0635 97.7872 13.0068 96.4992 12.5265C95.8833 12.2951 95.1528 12.2763 94.4608 12.2763H91.5972V9.816H88.8097V18.9654H94.4608ZM93.9804 14.4293C94.365 14.4293 94.7308 14.4293 95.0569 14.545C95.5186 14.6981 95.7874 15.0826 95.7874 15.5443C95.7874 16.0247 95.5186 16.4279 95.0767 16.6208C94.7693 16.7552 94.4608 16.7552 93.9804 16.7552H91.5972V14.4293H93.9804ZM103.591 15.5057L106.917 18.9654H110.627L105.995 14.199L110.454 9.816H106.955L103.591 13.2569H102.822V9.816H100.035V18.9654H102.822V15.5057H103.591ZM116.361 9.56589C112.613 9.56589 110.364 11.6803 110.364 14.4094C110.364 17.1397 112.613 19.2541 116.361 19.2541C120.091 19.2541 122.34 17.1397 122.34 14.4094C122.34 11.6803 120.091 9.56589 116.361 9.56589ZM116.361 17.024C114.497 17.024 113.305 15.909 113.305 14.4094C113.305 12.911 114.497 11.8147 116.361 11.8147C118.207 11.8147 119.418 12.911 119.418 14.4094C119.418 15.909 118.207 17.024 116.361 17.024ZM131.623 9.29706H128.835V10.2193C125.337 10.2964 123.241 11.7761 123.241 14.3907C123.241 17.0053 125.337 18.3693 128.835 18.4465V19.3687H131.623V18.4465C135.14 18.3693 137.235 17.0053 137.235 14.3907C137.235 11.7761 135.14 10.2964 131.623 10.2193V9.29706ZM128.835 16.4863C126.912 16.4092 126.067 15.6214 126.067 14.3907C126.067 13.16 126.912 12.2764 128.835 12.1992V16.4863ZM131.623 12.1992C133.564 12.2764 134.39 13.16 134.39 14.3907C134.39 15.6214 133.564 16.4092 131.623 16.4863V12.1992ZM146.508 9.29706H143.72V10.2193C140.222 10.2964 138.128 11.7761 138.128 14.3907C138.128 17.0053 140.222 18.3693 143.72 18.4465V19.3687H146.508V18.4465C150.026 18.3693 152.121 17.0053 152.121 14.3907C152.121 11.7761 150.026 10.2964 146.508 10.2193V9.29706ZM143.72 16.4863C141.799 16.4092 140.953 15.6214 140.953 14.3907C140.953 13.16 141.799 12.2764 143.72 12.1992V16.4863ZM146.508 12.1992C148.449 12.2764 149.276 13.16 149.276 14.3907C149.276 15.6214 148.449 16.4092 146.508 16.4863V12.1992Z" fill="black"/>
<path d="M52.9886 27.5837V34.0877H54.97V32.3391H57.0607C57.5527 32.3391 58.0308 32.3248 58.4955 32.175C59.3973 31.8874 60.0669 31.082 60.0669 29.989C60.0669 28.8949 59.411 28.1027 58.5228 27.7887C58.0308 27.6113 57.5663 27.5837 57.0607 27.5837H52.9886ZM54.97 29.1549H56.7737C57.1563 29.1549 57.3749 29.1957 57.5527 29.264C57.8669 29.3874 58.0172 29.6739 58.0172 29.9747C58.0172 30.303 57.8396 30.617 57.4979 30.7261C57.3339 30.7812 57.1427 30.8087 56.7737 30.8087H54.97V29.1549ZM65.4215 33.1446L65.8039 34.0877H68.0317L65.3665 27.5837H62.4698L59.8052 34.0877H62.0463L62.4152 33.1446H65.4215ZM63.8504 29.0866H64.0002L64.9434 31.71H62.9071L63.8504 29.0866ZM70.8502 29.9615V29.0866H75.6871V27.5837H68.868V34.0877H73.4868C74.1291 34.0877 74.6073 34.0337 74.9632 33.896C75.7146 33.6095 76.2204 32.9132 76.2204 31.9976C76.2204 31.0677 75.7422 30.4253 74.9896 30.1388C74.6349 30.0022 74.1699 29.9615 73.6642 29.9615H70.8502ZM70.8502 32.4482V31.4092H73.5551C73.7743 31.4092 73.9517 31.4235 74.0884 31.4918C74.2525 31.5734 74.3341 31.7243 74.3341 31.915C74.3341 32.1067 74.2382 32.3116 74.0068 32.3931C73.8967 32.4339 73.7468 32.4482 73.5551 32.4482H70.8502ZM81.195 27.4063C78.5308 27.4063 76.9321 28.9092 76.9321 30.8495C76.9321 32.7898 78.5308 34.2926 81.195 34.2926C83.846 34.2926 85.4447 32.7898 85.4447 30.8495C85.4447 28.9092 83.846 27.4063 81.195 27.4063ZM81.195 32.7082C79.8695 32.7082 79.0222 31.9149 79.0222 30.8495C79.0222 29.7829 79.8695 29.0051 81.195 29.0051C82.5073 29.0051 83.3678 29.7829 83.3678 30.8495C83.3678 31.9149 82.5073 32.7082 81.195 32.7082ZM90.5747 34.0877V29.3191H93.3887V27.5837H85.7091V29.3191H88.5242V34.0877H90.5747ZM98.5419 33.1446L98.9242 34.0877H101.152L98.4879 27.5837H95.5901L92.926 34.0877H95.167L95.5361 33.1446H98.5419ZM96.9707 29.0866H97.1205L98.0637 31.71H96.0275L96.9707 29.0866Z" fill="black"/>
</svg>
